<?xml version="1.0" encoding="UTF-8" standalone="no"?>
<!-- Created with Inkscape (http://www.inkscape.org/) -->

<svg
   version="1.1"
   id="svg1"
   width="800"
   height="800"
   viewBox="0 0 800 800"
   sodipodi:docname="Morena_logo_(Mexico).svg.png"
   xml:space="preserve"
   inkscape:export-filename="Pacto_Colombia.svg"
   inkscape:export-xdpi="96"
   inkscape:export-ydpi="96"
   xmlns:inkscape="http://www.inkscape.org/namespaces/inkscape"
   xmlns:sodipodi="http://sodipodi.sourceforge.net/DTD/sodipodi-0.dtd"
   xmlns="http://www.w3.org/2000/svg"
   xmlns:svg="http://www.w3.org/2000/svg"><defs
     id="defs1" /><sodipodi:namedview
     id="namedview1"
     pagecolor="#ffffff"
     bordercolor="#000000"
     borderopacity="0.25"
     inkscape:showpageshadow="2"
     inkscape:pageopacity="0.0"
     inkscape:pagecheckerboard="0"
     inkscape:deskcolor="#d1d1d1" /><g
     inkscape:groupmode="layer"
     inkscape:label="Image"
     id="g1"><rect
       style="fill:#1967b3;fill-opacity:1;stroke:#1967b3;stroke-width:50;stroke-linejoin:round;stroke-miterlimit:0;stroke-dasharray:none;stroke-opacity:1;paint-order:markers stroke fill"
       id="rect1"
       width="749.94189"
       height="749.93658"
       x="25.010027"
       y="25.006006" /><path
       style="fill:#f9f9f9;fill-opacity:1;stroke:#f9f9f9;stroke-width:0;stroke-linejoin:round;stroke-miterlimit:0;stroke-dasharray:none;stroke-opacity:1;paint-order:markers stroke fill"
       d="m 267.3125,655.44594 -0.6875,-0.10415 0.003,-27.6709 c 0.002,-15.21899 0.0731,-27.93129 0.15839,-28.24955 l 0.15497,-0.57866 12.77911,0.10368 c 11.77973,0.0956 12.99418,0.1455 15.52912,0.63836 1.5125,0.29407 3.16429,0.53594 3.67065,0.53748 0.69617,0.002 0.95892,0.12335 1.07758,0.49722 0.096,0.30234 0.52415,0.59331 1.10214,0.74895 0.51988,0.13998 1.15997,0.4929 1.42243,0.78426 0.26246,0.29136 0.73032,0.62655 1.0397,0.74487 0.30937,0.11832 0.5625,0.38451 0.5625,0.59155 0,0.20703 0.26713,0.44347 0.59363,0.52541 0.3265,0.082 0.71784,0.42159 0.86964,0.75477 0.15181,0.33317 0.44996,0.60577 0.66256,0.60577 0.2126,0 0.49761,0.29213 0.63337,0.64919 0.13575,0.35706 0.45989,0.70491 0.7203,0.77301 0.30865,0.0807 0.53319,0.44206 0.64498,1.03796 0.0943,0.50277 0.46772,1.58929 0.82977,2.41449 0.64631,1.47307 0.65839,1.60262 0.66451,7.12535 0.006,5.56519 -7.5e-4,5.63998 -0.65452,7.03431 -0.36342,0.77512 -0.73814,1.8673 -0.83272,2.42707 -0.1162,0.68778 -0.32731,1.06707 -0.65115,1.16985 -0.26357,0.0837 -0.5469,0.42181 -0.62964,0.75147 -0.0827,0.32966 -0.3707,0.66929 -0.63991,0.75473 -0.2692,0.0855 -0.59273,0.42698 -0.71895,0.75896 -0.12622,0.33199 -0.39844,0.60361 -0.60492,0.60361 -0.20648,0 -0.55971,0.28125 -0.78494,0.625 -0.22523,0.34375 -0.61762,0.625 -0.87197,0.625 -0.25435,0 -0.57854,0.21691 -0.72042,0.48202 -0.14942,0.2792 -0.82312,0.64631 -1.60109,0.87247 -0.73871,0.21476 -1.47898,0.55416 -1.64504,0.75425 -0.16605,0.20008 -0.91194,0.49043 -1.65753,0.64521 -0.7456,0.15479 -1.53993,0.46573 -1.76518,0.69099 -0.54083,0.54082 -7.22658,1.02104 -14.48953,1.04075 -4.78089,0.013 -5.31242,0.057 -5.6875,0.47149 -0.36821,0.40687 -0.41375,1.40892 -0.41375,9.10456 0,4.75605 -0.0683,8.82532 -0.15175,9.04281 -0.12945,0.33734 -0.67129,0.38994 -3.6875,0.35799 -1.94466,-0.0206 -3.84513,-0.0843 -4.22325,-0.1416 z m 21.5625,-25.81087 c 3.45762,-0.45589 6.13809,-1.06371 6.625,-1.50226 0.275,-0.24769 0.77208,-0.53312 1.10462,-0.63429 0.96975,-0.29504 3.02038,-2.49668 3.02038,-3.2428 0,-0.44891 0.18129,-0.71203 0.6004,-0.87137 0.44374,-0.16871 0.64418,-0.48744 0.76821,-1.22155 0.0923,-0.5463 0.37642,-1.18206 0.63139,-1.4128 0.9611,-0.86978 0.94611,-5.24792 -0.0208,-6.07582 -0.28697,-0.24571 -0.54124,-0.89666 -0.63946,-1.63707 -0.11154,-0.84087 -0.34891,-1.39076 -0.7514,-1.74072 -0.32359,-0.28136 -0.58834,-0.64837 -0.58834,-0.81558 0,-0.36029 -1.64599,-1.85581 -2.04253,-1.85581 -0.15133,0 -0.51921,-0.26336 -0.81753,-0.58525 -0.32117,-0.34656 -0.97747,-0.65482 -1.60918,-0.75584 -0.58674,-0.0938 -1.40544,-0.42108 -1.81934,-0.72725 -0.73553,-0.54408 -0.93528,-0.55854 -8.83464,-0.63992 -5.62826,-0.058 -8.24068,0.002 -8.60444,0.1963 -0.51771,0.27707 -0.52234,0.37769 -0.52234,11.34013 0,12.08868 -0.008,12.02337 1.44023,12.24303 1.30701,0.19828 10.44354,0.15197 12.05977,-0.0611 z"
       id="path1" /><path
       style="fill:#f9f9f9;fill-opacity:1;stroke:#f9f9f9;stroke-width:0;stroke-linejoin:round;stroke-miterlimit:0;stroke-dasharray:none;stroke-opacity:1;paint-order:markers stroke fill"
       d="m 323.95988,655.82271 c -2.90844,-0.87178 -6.51128,-3.50604 -7.81602,-5.7148 -1.59464,-2.69951 -1.50888,-11.08541 0.13317,-13.02254 5.27246,-6.21991 11.57791,-7.60247 25.43232,-5.5764 l 3.0052,0.43948 v -2.94919 c 0,-4.14608 -2.13127,-7.80596 -4.54568,-7.80596 -0.61114,0 -1.11117,-0.34003 -1.11117,-0.75562 0,-0.97533 -12.18474,-0.51835 -15.38091,0.57685 -2.52021,0.86358 -3.03845,0.40862 -3.96753,-3.48312 -0.42739,-1.79024 -0.24256,-1.95507 3.36977,-3.00521 4.54722,-1.32191 16.32441,-1.48796 20.33389,-0.28669 3.45326,1.03462 6.29069,3.71358 8.27522,7.81308 1.45684,3.00944 1.53004,4.00266 1.34927,18.30873 l -0.19113,15.12666 -4.06586,0.21207 -4.06587,0.21206 v -2.11487 c 0,-2.97439 -0.7978,-3.14863 -3.95933,-0.86472 -1.517,1.09589 -3.83981,2.35783 -5.16179,2.80432 -2.7543,0.93024 -8.67083,0.97392 -11.63355,0.0859 z m 13.29687,-5.00775 c 1.53739,-0.42683 3.85993,-1.84073 5.1612,-3.142 2.24079,-2.24079 2.35477,-2.59767 2.1545,-6.74586 l -0.21145,-4.3799 -3.53553,-0.92823 c -6.70466,-1.76025 -11.87874,-0.96119 -15.7908,2.43867 -1.34793,1.17145 -1.65512,2.15282 -1.68412,5.38018 -0.0313,3.48082 0.20153,4.15104 1.96973,5.67041 2.89876,2.49082 7.00003,3.07724 11.93647,1.70673 z"
       id="path2" /><path
       style="fill:#f9f9f9;fill-opacity:1;stroke:#f9f9f9;stroke-width:0;stroke-linejoin:round;stroke-miterlimit:0;stroke-dasharray:none;stroke-opacity:1;paint-order:markers stroke fill"
       d="m 365.01755,655.40273 c -0.2772,-0.2772 -0.50401,-9.85369 -0.50401,-21.28109 v -20.77708 l 4.03644,0.21206 4.03644,0.21206 -0.19597,3.64054 c -0.23062,4.28438 0.96722,5.64764 2.68069,3.05087 2.17886,-3.30209 5.72148,-6.27576 8.34416,-7.00409 4.35627,-1.20976 4.43277,-1.14945 4.43277,3.49466 0,4.23299 -0.005,4.24264 -2.09982,4.24264 -3.97318,0 -11.26358,5.48938 -11.31619,8.52064 -0.0105,0.60281 -0.33761,1.41461 -0.72701,1.804 -0.38939,0.38939 -0.94623,5.94195 -1.23743,12.33901 l -0.52945,11.63103 -3.20831,0.20938 c -1.76457,0.11516 -3.43511,-0.0174 -3.71231,-0.29463 z"
       id="path3" /><path
       style="fill:#f9f9f9;fill-opacity:1;stroke:#f9f9f9;stroke-width:0;stroke-linejoin:round;stroke-miterlimit:0;stroke-dasharray:none;stroke-opacity:1;paint-order:markers stroke fill"
       d="m 405.17218,655.24664 c -5.69143,-2.73691 -6.10768,-4.16062 -6.49335,-22.2093 l -0.2833,-13.25825 h -2.79886 -2.79885 v -3.18198 -3.18198 h 2.80089 2.8009 l 0.20431,-6.18718 0.2043,-6.18719 h 3.88909 3.88909 l 0.18086,4.5962 c 0.3195,8.11935 0.0167,7.77817 6.90368,7.77817 h 5.99693 v 3.18198 3.18198 h -5.93475 c -4.75942,0 -6.01976,0.22151 -6.36396,1.11849 -0.7722,2.01231 -0.47005,23.47408 0.356,25.28706 1.18427,2.59918 3.52611,3.521 8.00198,3.14983 l 3.94073,-0.3268 v 2.72733 c 0,2.32033 -0.29018,2.8403 -1.94454,3.48438 -3.79264,1.47657 -9.51146,1.48899 -12.55115,0.0273 z"
       id="path4" /><path
       style="fill:#f9f9f9;fill-opacity:1;stroke:#f9f9f9;stroke-width:0;stroke-linejoin:round;stroke-miterlimit:0;stroke-dasharray:none;stroke-opacity:1;paint-order:markers stroke fill"
       d="m 430.27447,634.66529 v -21.25016 h 3.89961 3.89961 l -0.1873,21.03643 -0.18729,21.03642 -3.71231,0.21373 -3.71232,0.21373 z"
       id="path5" /><path
       style="fill:#f9f9f9;fill-opacity:1;stroke:#f9f9f9;stroke-width:0;stroke-linejoin:round;stroke-miterlimit:0;stroke-dasharray:none;stroke-opacity:1;paint-order:markers stroke fill"
       d="m 430.27447,600.68721 v -3.53554 h 4.24265 4.24264 v 3.53554 3.53553 h -4.24264 -4.24265 z"
       id="path6" /><path
       style="fill:#f9f9f9;fill-opacity:1;stroke:#f9f9f9;stroke-width:0;stroke-linejoin:round;stroke-miterlimit:0;stroke-dasharray:none;stroke-opacity:1;paint-order:markers stroke fill"
       d="m 462.79681,655.88796 c -3.39949,-1.03407 -6.02576,-2.75527 -8.86441,-5.80954 -4.21173,-4.53165 -4.91999,-6.80802 -4.91706,-15.80364 0.003,-9.03038 0.78314,-11.28484 5.5941,-16.16489 3.82488,-3.8798 7.07707,-5.04611 13.8488,-4.96647 5.48844,0.0645 9.45661,1.55779 12.03261,4.52795 0.60551,0.69816 1.72561,1.37846 2.48911,1.51178 1.32783,0.23185 1.39662,-0.2741 1.58222,-11.63801 l 0.19404,-11.88039 3.69505,0.21313 3.69505,0.21313 v 29.69849 29.69848 l -3.71231,0.21373 -3.71231,0.21373 v -3.1772 c 0,-1.74746 -0.30531,-3.36589 -0.67847,-3.59652 -0.37316,-0.23062 -1.91704,0.69966 -3.43085,2.06729 -5.1298,4.63447 -12.01617,6.44305 -17.81557,4.67895 z m 11.30985,-6.16121 c 3.219,-0.6438 9.20082,-6.7356 9.20082,-9.36999 0,-0.77128 0.3182,-1.59898 0.70711,-1.83934 0.97949,-0.60536 0.885,-5.43007 -0.17678,-9.02675 -1.04561,-3.54191 -6.78128,-9.71158 -9.02842,-9.71158 -0.82191,0 -2.0303,-0.28215 -2.68532,-0.627 -0.72066,-0.3794 -2.58711,-0.3096 -4.72649,0.17678 -4.28779,0.97479 -9.54594,5.69171 -9.54594,8.56334 0,0.98251 -0.3182,1.78638 -0.70711,1.78638 -0.87451,0 -0.94268,8.04138 -0.0825,9.73231 0.34354,0.67531 1.05746,2.18244 1.58649,3.34916 2.5651,5.65703 8.54079,8.35016 15.45814,6.96669 z"
       id="path7" /><path
       style="fill:#f9f9f9;fill-opacity:1;stroke:#f9f9f9;stroke-width:0;stroke-linejoin:round;stroke-miterlimit:0;stroke-dasharray:none;stroke-opacity:1;paint-order:markers stroke fill"
       d="m 515.48084,655.05177 c -3.3294,-1.15047 -5.04087,-2.32675 -7.95099,-5.46466 -2.20225,-2.37464 -4.03883,-5.14735 -4.52208,-6.82705 -1.6839,-5.85298 -0.63932,-17.38591 1.79642,-19.83385 0.42744,-0.42957 1.81453,-1.96456 3.08244,-3.41108 1.26791,-1.44653 3.97259,-3.47827 6.01041,-4.51498 3.25379,-1.65533 4.5234,-1.88275 10.42264,-1.86698 5.44541,0.0146 7.3242,0.31171 9.9212,1.56915 4.75152,2.30065 7.90399,5.21561 9.80587,9.06712 0.93272,1.88885 1.96687,3.9868 2.2981,4.66211 0.33123,0.67532 0.60224,3.4 0.60224,6.05485 0,5.15921 -1.77762,9.99687 -5.47449,14.89836 -4.55668,6.04147 -17.03475,8.76208 -25.99176,5.66701 z m 12.5306,-4.99744 c 3.5583,-1.06609 9.29887,-6.63361 10.45651,-10.14129 1.25834,-3.81282 0.52046,-10.32777 -1.49608,-13.20924 -2.59603,-3.7095 -6.42225,-6.92471 -8.24067,-6.92471 -0.92184,0 -2.21502,-0.28844 -2.87374,-0.64097 -2.13758,-1.144 -7.9705,0.86836 -11.2605,3.88488 -1.65286,1.51547 -3.00521,3.29596 -3.00521,3.95665 0,0.66069 -0.31819,1.39792 -0.7071,1.63828 -0.922,0.56982 -0.922,10.74388 0,11.3137 0.38891,0.24036 0.7071,1.05646 0.7071,1.81355 0,1.87956 5.64419,7.30356 8.57439,8.23988 3.24377,1.03652 4.5776,1.0483 7.8453,0.0693 z"
       id="path8" /><path
       style="fill:#f9f9f9;fill-opacity:1;stroke:#f9f9f9;stroke-width:0;stroke-linejoin:round;stroke-miterlimit:0;stroke-dasharray:none;stroke-opacity:1;paint-order:markers stroke fill"
       d="m 100.40916,735.7446 c -0.24036,-0.38891 -1.169773,-0.7071 -2.065367,-0.7071 -2.699762,0 -12.554061,-5.50202 -16.208414,-9.04975 -12.063537,-11.71156 -15.60126,-27.55183 -9.98103,-44.69037 2.563858,-7.81832 10.893932,-17.22366 18.476929,-20.86196 10.876312,-5.21843 25.559942,-5.31625 38.238932,-0.25475 2.04177,0.81509 3.71231,1.76321 3.71231,2.10695 0,0.34374 0.33686,0.62498 0.74857,0.62498 0.41171,0 1.97906,0.98885 3.48299,2.19744 l 2.73442,2.19744 -2.24555,2.28783 c -1.23506,1.25831 -2.907,3.20036 -3.71544,4.31565 l -1.46988,2.02782 -3.47986,-2.47572 c -1.91393,-1.36165 -4.43446,-2.89778 -5.60119,-3.41361 -1.16673,-0.51584 -2.67385,-1.21896 -3.34916,-1.56249 -0.67532,-0.34353 -2.00888,-0.62461 -2.96348,-0.62461 -0.95459,0 -1.93228,-0.3182 -2.17264,-0.7071 -0.24036,-0.38891 -2.62685,-0.70711 -5.3033,-0.70711 -2.67646,0 -5.06294,0.3182 -5.3033,0.70711 -0.24036,0.3889 -1.20245,0.7071 -2.13796,0.7071 -3.779805,0 -9.723432,4.36057 -15.046457,11.03889 -6.497111,8.15134 -6.819288,23.49443 -0.693784,33.0402 3.880157,6.0467 6.90834,8.71782 13.635557,12.02772 3.567284,1.75516 13.971504,2.03217 18.738334,0.4989 3.51352,-1.13014 13.43502,-7.45106 13.43502,-8.55937 0,-0.38551 1.79494,1.09401 3.98875,3.28782 l 3.98874,3.98874 -3.11343,2.9413 c -3.00541,2.83924 -14.19396,8.91095 -16.42052,8.91095 -0.5984,0 -1.28465,0.31819 -1.52501,0.7071 -0.25327,0.40981 -4.11822,0.70711 -9.19239,0.70711 -5.07417,0 -8.93912,-0.2973 -9.19239,-0.70711 z"
       id="path9" /><path
       style="fill:#f9f9f9;fill-opacity:1;stroke:#f9f9f9;stroke-width:0;stroke-linejoin:round;stroke-miterlimit:0;stroke-dasharray:none;stroke-opacity:1;paint-order:markers stroke fill"
       d="m 169.70563,735.7446 c -0.24036,-0.38891 -1.08507,-0.7071 -1.87712,-0.7071 -0.79206,0 -2.28472,-0.56832 -3.31703,-1.26292 -1.03231,-0.69461 -2.80384,-1.72875 -3.93673,-2.2981 -5.3506,-2.689 -11.17422,-10.76263 -12.74511,-17.66931 -1.44659,-6.36019 -1.39394,-9.93807 0.23773,-16.15298 2.7256,-10.38158 10.68749,-17.97131 22.36511,-21.3197 4.4087,-1.26413 15.04836,-0.368 19.42569,1.63614 6.2173,2.84656 14.14214,9.34499 14.14214,11.59666 0,0.50736 0.31819,0.92248 0.7071,0.92248 0.38891,0 0.70711,0.48161 0.70711,1.07025 0,0.58864 0.28107,1.62279 0.62461,2.2981 1.29648,2.5486 2.07169,4.87817 2.82046,8.47569 2.13646,10.26477 -5.52414,24.73255 -15.81944,29.87652 -1.94454,0.97158 -3.6416,2.00515 -3.77124,2.29684 -0.12963,0.29168 -0.9859,0.53033 -1.90281,0.53033 -0.91691,0 -1.86377,0.31819 -2.10412,0.7071 -0.24594,0.39794 -3.64682,0.70711 -7.77818,0.70711 -4.13136,0 -7.53224,-0.30917 -7.77817,-0.70711 z m 16.16076,-11.01086 c 6.52289,-3.2603 9.67156,-7.65576 11.12801,-15.53443 2.24111,-12.12325 -7.27207,-23.65929 -19.5106,-23.65929 -7.4216,0 -13.25853,3.6797 -17.38558,10.96016 -2.09273,3.69173 -2.39155,14.13144 -0.51612,18.03122 5.01303,10.42413 16.73641,14.9746 26.28429,10.20234 z"
       id="path10" /><path
       style="fill:#f9f9f9;fill-opacity:1;stroke:#f9f9f9;stroke-width:0;stroke-linejoin:round;stroke-miterlimit:0;stroke-dasharray:none;stroke-opacity:1;paint-order:markers stroke fill"
       d="m 220.97087,706.04612 v -28.99138 h 5.65685 5.65686 v 3.88909 c 0,4.74639 0.94556,5.01305 4.77133,1.34558 3.39752,-3.25694 5.51238,-4.66668 8.63202,-5.75398 3.23791,-1.12851 9.18197,-1.13363 12.8098,-0.011 4.01692,1.24301 8.99897,5.26838 11.15828,9.01561 l 1.8336,3.18198 0.26177,23.15775 0.26178,23.15775 -5.54538,7e-4 -5.54538,7.1e-4 0.21549,-16.05989 c 0.1323,-9.8601 -0.0977,-17.9168 -0.59586,-20.87005 -0.71342,-4.22963 -1.1778,-5.17664 -3.84769,-7.84653 -6.95786,-6.95785 -16.35639,-6.02001 -22.34574,2.22981 -1.69899,2.34022 -1.71204,2.4909 -1.94475,22.45064 l -0.23428,20.09461 h -5.59935 -5.59935 z"
       id="path11" /><path
       style="fill:#f9f9f9;fill-opacity:1;stroke:#f9f9f9;stroke-width:0;stroke-linejoin:round;stroke-miterlimit:0;stroke-dasharray:none;stroke-opacity:1;paint-order:markers stroke fill"
       d="m 297.69195,735.56166 c -3.58834,-1.25108 -15.20279,-6.83562 -15.20279,-7.30991 0,-0.92071 3.78274,-7.35639 4.3239,-7.35639 0.30999,0 2.15117,0.93606 4.09151,2.08012 1.94034,1.14407 5.05678,2.60013 6.92541,3.23568 4.07469,1.38587 11.28422,1.61489 14.09522,0.44775 2.38796,-0.9915 5.21219,-4.82769 5.21219,-7.07979 0,-1.65404 -4.13765,-6.46193 -5.5611,-6.46193 -0.45213,0 -1.37458,-0.28108 -2.04989,-0.62461 -2.07953,-1.05786 -4.6239,-2.00281 -7.94536,-2.95082 -6.7332,-1.92178 -12.06543,-4.99181 -14.55009,-8.3772 -2.14064,-2.91666 -2.38721,-3.73566 -2.40294,-7.98141 -0.01,-2.60218 0.30067,-4.9279 0.68958,-5.16825 0.3889,-0.24036 0.7071,-1.01411 0.7071,-1.71945 0,-1.58958 5.54469,-6.79163 8.65504,-8.12018 4.74415,-2.02642 8.2577,-2.71861 11.6198,-2.28918 5.4343,0.69411 8.2584,1.22312 9.7772,1.83149 5.47826,2.19435 8.83883,3.92939 8.83883,4.56344 0,1.37474 -3.17538,7.47669 -3.88908,7.47343 -0.38891,-0.002 -1.5026,-0.62548 -2.47488,-1.386 -0.97227,-0.76052 -2.26097,-1.38984 -2.86378,-1.39849 -0.60281,-0.009 -1.44183,-0.36154 -1.8645,-0.78421 -0.42267,-0.42267 -3.29385,-0.94158 -6.38042,-1.15314 -4.47801,-0.30693 -6.14353,-0.13238 -8.24292,0.86384 -2.52943,1.20029 -4.69001,4.08953 -4.69001,6.27172 0,1.20681 3.34797,5.39267 4.31321,5.39267 0.35857,0 2.15993,0.6681 4.003,1.48468 4.76671,2.11189 5.68521,2.48039 10.30294,4.13348 2.2679,0.81188 5.13168,1.99663 6.36396,2.63276 2.84748,1.46995 6.8367,5.78895 6.8367,7.40188 0,0.67886 0.3182,1.43095 0.70711,1.67131 0.95703,0.59148 0.89569,5.48138 -0.0994,7.92168 -2.21338,5.42812 -2.90385,6.59538 -4.88995,8.26657 -1.99358,1.67749 -3.47112,2.45794 -8.65575,4.57203 -2.41921,0.98646 -12.78913,0.93126 -15.69986,-0.0836 z"
       id="path12" /><path
       style="fill:#f9f9f9;fill-opacity:1;stroke:#f9f9f9;stroke-width:0;stroke-linejoin:round;stroke-miterlimit:0;stroke-dasharray:none;stroke-opacity:1;paint-order:markers stroke fill"
       d="m 357.79603,735.7446 c -0.24036,-0.38891 -1.18722,-0.7071 -2.10413,-0.7071 -0.91691,0 -1.77317,-0.23865 -1.90281,-0.53033 -0.12963,-0.29169 -1.78858,-1.31762 -3.68654,-2.27985 -5.74543,-2.91284 -10.9533,-9.42768 -12.90607,-16.14498 -1.64266,-5.65054 -1.09834,-18.38166 0.9823,-22.97526 6.01024,-13.26927 20.60762,-20.36833 33.70964,-16.39383 5.53122,1.6779 11.17986,5.74288 13.90827,10.00895 1.32271,2.06815 2.64358,3.76191 2.93526,3.76392 0.29168,0.002 0.53033,0.57641 0.53033,1.27644 0,0.70004 0.28209,1.57508 0.62686,1.94454 0.79407,0.85093 2.20157,9.06721 2.20157,12.85162 0,1.96625 -0.35264,3.00695 -1.11849,3.30083 -0.61518,0.23607 -10.60437,0.42921 -22.19822,0.42921 -18.3258,0 -21.13429,0.14222 -21.49745,1.08861 -0.22976,0.59874 -0.13125,1.63288 0.21891,2.2981 0.35017,0.66522 1.01498,2.23149 1.47737,3.48061 1.23471,3.33553 7.012,8.43176 10.68429,9.42477 6.75479,1.82654 13.96583,0.2966 20.52193,-4.35407 1.03231,-0.73228 2.07706,-1.33142 2.32167,-1.33142 0.68936,0 5.34735,4.82307 5.34735,5.53686 0,0.96564 -3.18922,3.9461 -5.43046,5.075 -1.09679,0.55244 -2.83878,1.57275 -3.87109,2.26736 -1.0323,0.6946 -2.52497,1.26292 -3.31702,1.26292 -0.79206,0 -1.63676,0.31819 -1.87712,0.7071 -0.24594,0.39794 -3.64682,0.70711 -7.77818,0.70711 -4.13135,0 -7.53223,-0.30917 -7.77817,-0.70711 z m 21.8698,-33.63808 c 1.32905,-1.32904 1.34212,-1.53576 0.29191,-4.61694 -1.16011,-3.40365 -4.47148,-8.06281 -7.22082,-10.15983 -4.4742,-3.41263 -14.67497,-3.08326 -18.29296,0.59066 -3.40886,3.46156 -5.59447,6.53955 -5.97724,8.4177 -0.21961,1.0776 -0.67639,2.13052 -1.01507,2.33983 -0.95961,0.59307 -0.72645,2.20674 0.49539,3.42858 1.65811,1.65811 30.06068,1.65811 31.71879,0 z"
       id="path13" /><path
       style="fill:#f9f9f9;fill-opacity:1;stroke:#f9f9f9;stroke-width:0;stroke-linejoin:round;stroke-miterlimit:0;stroke-dasharray:none;stroke-opacity:1;paint-order:markers stroke fill"
       d="m 403.40442,706.04612 v -28.99138 l 5.83363,-0.002 5.83363,-0.002 -0.19475,5.12816 c -0.10711,2.8205 0.0994,5.57229 0.45896,6.1151 0.81097,1.22432 2.81089,0.53947 3.35148,-1.14766 1.81065,-5.65094 9.91691,-11.46285 16.03405,-11.49588 l 1.97208,-0.0106 -0.20431,6.18718 -0.20431,6.18719 -2.47487,0.1984 c -1.36118,0.10913 -3.11127,0.47443 -3.88909,0.81179 -0.77782,0.33736 -2.56222,1.11659 -3.96535,1.73161 -2.61168,1.14478 -7.6949,6.4539 -7.6994,8.04157 -10e-4,0.48614 -0.32071,0.88389 -0.70962,0.88389 -0.38891,0 -0.7071,0.73185 -0.7071,1.62634 0,0.89449 -0.38684,2.01319 -0.85964,2.48599 -0.61983,0.61982 -0.8664,5.09676 -0.88389,16.04816 l -0.0242,15.18853 -5.83363,0.003 -5.83363,0.003 z"
       id="path14" /><path
       style="fill:#f9f9f9;fill-opacity:1;stroke:#f9f9f9;stroke-width:0;stroke-linejoin:round;stroke-miterlimit:0;stroke-dasharray:none;stroke-opacity:1;paint-order:markers stroke fill"
       d="m 464.2156,733.96724 c 0,-0.58864 -0.28929,-1.62278 -0.64286,-2.2981 -1.93219,-3.69044 -5.35109,-11.64033 -6.51159,-15.14125 -0.7318,-2.20765 -2.40576,-6.34423 -3.71991,-9.19239 -1.31415,-2.84816 -2.91365,-6.72591 -3.55445,-8.61722 -1.11307,-3.28524 -2.93979,-7.61432 -5.08445,-12.04946 -0.54606,-1.12925 -0.99284,-2.48159 -0.99284,-3.0052 0,-0.52362 -0.31819,-0.95203 -0.7071,-0.95203 -0.38891,0 -0.70711,-0.77671 -0.70711,-1.72603 0,-0.94932 -0.3182,-1.92269 -0.70711,-2.16305 -1.91106,-1.18111 -0.15422,-1.76777 5.29381,-1.76777 h 6.00092 l 0.96207,2.30255 c 0.52914,1.2664 1.40676,3.57334 1.95026,5.12653 0.54351,1.55318 1.16234,2.98307 1.37517,3.17752 0.21284,0.19446 0.80829,1.78545 1.32322,3.53554 1.78021,6.05038 3.02266,9.4996 4.39026,12.18799 0.34353,0.67532 0.6246,1.70946 0.6246,2.2981 0,0.58864 0.3182,1.07025 0.70711,1.07025 0.38891,0 0.70711,0.64072 0.70711,1.42381 0,0.7831 0.2971,1.97634 0.66022,2.65165 0.36312,0.67532 1.07444,2.75778 1.58072,4.6277 1.08302,4.00014 2.7979,5.97499 3.96613,4.56736 0.41414,-0.49901 1.20109,-2.17758 1.74877,-3.73015 0.54768,-1.55257 2.52362,-6.95943 4.39097,-12.01524 1.86735,-5.05581 4.02083,-10.94248 4.78551,-13.08147 0.76468,-2.139 1.72007,-4.68459 2.1231,-5.65686 0.40303,-0.97227 0.96879,-2.40416 1.25724,-3.18198 2.11107,-5.69257 1.54173,-5.3033 7.75645,-5.3033 3.11961,0 5.67201,0.0809 5.67201,0.17984 0,1.09711 -6.54558,17.31441 -8.5569,21.20055 -0.34952,0.67531 -0.63549,1.71377 -0.63549,2.30769 0,0.59391 -0.28476,1.63238 -0.63281,2.30769 -1.60832,3.12062 -4.95844,10.66262 -5.72794,12.8951 -1.21334,3.52021 -1.91234,5.23352 -5.48123,13.43503 -0.76155,1.75009 -1.58064,3.73883 -1.8202,4.41942 -0.36594,1.03964 -1.34333,1.23744 -6.11461,1.23744 -4.59927,0 -5.67905,-0.2035 -5.67905,-1.07026 z"
       id="path15" /><path
       style="fill:#f9f9f9;fill-opacity:1;stroke:#f9f9f9;stroke-width:0;stroke-linejoin:round;stroke-miterlimit:0;stroke-dasharray:none;stroke-opacity:1;paint-order:markers stroke fill"
       d="m 514.16814,735.03412 c -4.49337,-2.24301 -8.82127,-5.85641 -10.05309,-8.39339 -1.56425,-3.22162 -2.05879,-9.65449 -1.03359,-13.44468 2.11069,-7.80323 11.14891,-12.80679 23.13366,-12.80679 3.57378,0 7.23443,0.27866 8.1348,0.61925 0.90036,0.34058 3.29445,0.84594 5.32021,1.12301 3.46655,0.47413 3.70678,0.40651 4.08429,-1.14958 0.61193,-2.52235 -2.10544,-9.0025 -4.81634,-11.48559 -5.49357,-5.03191 -16.7855,-5.14961 -26.20365,-0.27312 -1.59822,0.82751 -2.32595,-0.0683 -2.99224,-3.68321 -0.25089,-1.36118 -0.76026,-2.85868 -1.13194,-3.32778 -1.00241,-1.26515 -0.25971,-1.9767 3.12283,-2.9919 1.67236,-0.50192 3.67705,-1.17478 4.45487,-1.49524 1.53855,-0.63389 4.76953,-1.16189 11.22644,-1.83458 7.05681,-0.7352 15.63364,1.85413 20.60769,6.2214 2.75997,2.42329 5.99608,8.32944 5.99608,10.94333 0,0.87653 0.3182,1.79035 0.70711,2.03071 0.76772,0.47448 1.02823,36.87771 0.2779,38.83304 -0.3428,0.89333 -1.58941,1.1185 -6.19228,1.1185 h -5.76308 l 0.25308,-3.18198 c 0.20278,-2.54962 0.0285,-3.18198 -0.87715,-3.18198 -1.11753,0 -8.33842,4.78287 -8.79382,5.82473 -0.12964,0.29657 -0.98591,0.53923 -1.90282,0.53923 -0.91691,0 -1.86376,0.31819 -2.10412,0.7071 -0.24036,0.38891 -3.20247,0.69443 -6.58247,0.67893 -4.60728,-0.0211 -6.82799,-0.36888 -8.87237,-1.38941 z m 20.25052,-8.0212 c 5.74299,-2.40662 9.96145,-8.64643 9.5604,-14.14145 -0.31847,-4.3636 -2.76299,-5.33349 -13.5527,-5.37717 -7.34547,-0.0297 -8.72987,0.15761 -11.12923,1.50613 -1.50713,0.84705 -2.92424,2.11984 -3.14913,2.82842 -0.2249,0.70859 -0.70566,1.28834 -1.06836,1.28834 -0.3627,0 -0.65788,1.98873 -0.65595,4.41941 0.004,4.92288 1.38455,7.35716 5.29979,9.34441 2.67711,1.3588 11.57676,1.43869 14.69518,0.13191 z"
       id="path16" /><path
       style="fill:#f9f9f9;fill-opacity:1;stroke:#f9f9f9;stroke-width:0;stroke-linejoin:round;stroke-miterlimit:0;stroke-dasharray:none;stroke-opacity:1;paint-order:markers stroke fill"
       d="m 584.42375,735.10029 c -1.36118,-0.71228 -3.56205,-1.86305 -4.89082,-2.55728 -5.07274,-2.65026 -10.39667,-9.80691 -12.28304,-16.51139 -1.13838,-4.046 -1.42449,-14.94052 -0.47579,-18.11723 2.22456,-7.44884 3.87996,-10.59319 7.41149,-14.07771 7.05266,-6.9588 17.46622,-9.98943 25.08912,-7.30162 3.52989,1.24462 8.54803,4.31828 10.55137,6.4628 0.94284,1.00928 2.45428,1.83505 3.35876,1.83505 h 1.6445 v -15.55634 -15.55635 h 5.48008 5.48008 v 40.65864 40.65864 h -5.48008 -5.48008 v -4.26483 c 0,-5.25836 -1.27133,-6.18498 -4.23681,-3.08802 -3.63164,3.79266 -8.56615,7.35285 -10.19125,7.35285 -0.62056,0 -1.12829,0.31819 -1.12829,0.7071 0,0.41968 -2.51501,0.69565 -6.18718,0.67893 -4.58301,-0.0209 -6.82885,-0.36395 -8.66206,-1.32324 z m 17.96062,-9.62481 c 3.48444,-1.45589 7.873,-5.53627 10.18601,-9.47072 1.71332,-2.91439 1.90349,-3.91833 1.88631,-9.95864 -0.0156,-5.4959 -0.29689,-7.24311 -1.54668,-9.6077 -1.93396,-3.65905 -6.01444,-7.75987 -9.48122,-9.52849 -4.32694,-2.20744 -13.67888,-1.77071 -16.17661,0.75543 -0.19445,0.19667 -1.46725,1.1879 -2.82843,2.20274 -2.74684,2.04793 -5.65685,6.92753 -5.65685,9.48559 0,0.91257 -0.3182,1.85588 -0.70711,2.09623 -0.84956,0.52506 -0.9528,8.27345 -0.12295,9.22775 0.32128,0.36946 1.02077,2.10364 1.55442,3.85373 1.11987,3.6726 5.58251,8.58225 9.64389,10.60989 3.3406,1.66779 9.67507,1.82757 13.24922,0.33419 z"
       id="path17" /><path
       style="fill:#f9f9f9;fill-opacity:1;stroke:#f9f9f9;stroke-width:0;stroke-linejoin:round;stroke-miterlimit:0;stroke-dasharray:none;stroke-opacity:1;paint-order:markers stroke fill"
       d="m 660.08418,735.79327 c -0.58337,-0.3164 -3.06915,-1.59051 -5.52397,-2.83135 -5.53112,-2.79581 -6.48716,-3.59187 -10.67012,-8.88458 -3.98008,-5.036 -4.79303,-6.93639 -5.66456,-13.24177 -0.68436,-4.95122 0.16414,-14.44078 1.40507,-15.71425 0.36002,-0.36946 0.65459,-1.09539 0.65459,-1.61316 0,-1.50788 6.51614,-9.77449 8.83883,-11.21324 6.03911,-3.74084 9.07206,-5.24018 10.60013,-5.24018 0.92993,0 1.88744,-0.3182 2.12779,-0.70711 0.6015,-0.97323 11.34699,-0.89237 14.44549,0.10871 6.99514,2.26002 13.98896,6.50455 16.39635,9.9509 0.88932,1.27312 1.79566,2.47386 2.0141,2.66832 0.21844,0.19445 1.14364,1.94454 2.056,3.88908 0.91236,1.94455 1.94221,4.08807 2.28856,4.76338 0.81867,1.59626 0.81867,15.03993 0,16.6362 -0.34635,0.67531 -1.32206,2.68306 -2.16824,4.46167 -0.84618,1.7786 -2.25416,4.06667 -3.12883,5.08459 -0.87468,1.01793 -2.20188,2.66514 -2.94935,3.66047 -0.74746,0.99533 -1.62391,1.80969 -1.94767,1.80969 -0.32376,0 -1.91877,0.88477 -3.54448,1.96616 -1.62571,1.08139 -3.91042,2.39131 -5.07715,2.91093 -1.16673,0.51962 -2.67385,1.22584 -3.34916,1.56937 -1.52855,0.77758 -15.35869,0.74974 -16.80338,-0.0338 z m 16.62215,-10.90368 c 4.07567,-1.89794 7.40814,-5.39751 9.70414,-10.19072 2.45947,-5.13446 2.27552,-12.67905 -0.43487,-17.83656 -3.88496,-7.39256 -10.01634,-11.32229 -17.66563,-11.32229 -2.48465,0 -5.66305,0.47862 -7.06311,1.06361 -3.29191,1.37544 -8.52569,6.62541 -10.01463,10.0456 -0.64154,1.47366 -1.45788,3.2319 -1.8141,3.90722 -0.92351,1.7508 -0.80059,8.1231 0.21404,11.09632 1.06931,3.13341 4.4651,8.34468 6.87225,10.54633 5.03938,4.60915 13.62604,5.75272 20.20191,2.69049 z"
       id="path18" /><path
       style="fill:#f9f9f9;fill-opacity:1;stroke:#f9f9f9;stroke-width:0;stroke-linejoin:round;stroke-miterlimit:0;stroke-dasharray:none;stroke-opacity:1;paint-order:markers stroke fill"
       d="m 711.70297,706.04612 v -28.99138 h 5.65686 5.65685 v 6.01041 c 0,5.56995 0.10526,6.01041 1.43641,6.01041 0.79002,0 1.63909,-0.55685 1.88681,-1.23744 2.19296,-6.0249 10.34091,-12.14562 16.22334,-12.18695 1.99267,-0.014 2.37375,1.18553 2.37375,7.47181 v 5.24547 h -3.14025 c -1.72714,0 -3.3369,0.3182 -3.57726,0.70711 -0.24036,0.3889 -1.21374,0.7071 -2.16306,0.7071 -0.94931,0 -1.72603,0.3182 -1.72603,0.70711 0,0.38891 -0.44548,0.70711 -0.98995,0.70711 -1.28872,0 -5.82882,4.55522 -7.33226,7.35667 -2.41633,4.50251 -2.92874,8.40034 -2.96029,22.51859 l -0.0312,13.96536 h -5.65685 -5.65686 z"
       id="path19" /><path
       style="fill:#f9f9f9;fill-opacity:1;stroke:#f9f9f9;stroke-width:0;stroke-linejoin:round;stroke-miterlimit:0;stroke-dasharray:none;stroke-opacity:1;paint-order:markers stroke fill"
       d="m 307.92358,500.63521 c -22.87,-4.14563 -38.26888,-10.44106 -59.16598,-24.18843 -18.6925,-12.29704 -30.13281,-30.51167 -37.50967,-59.72082 -3.63932,-14.41011 -4.06564,-18.47491 -4.06564,-38.76418 0,-23.25363 0.42915,-26.18338 6.6827,-45.62159 11.13528,-34.61229 40.77798,-81.74634 71.15216,-113.13709 8.20486,-8.47945 12.64365,-14.23683 13.29812,-17.24843 2.72567,-12.54237 71.97132,-66.67311 122.02003,-95.38554 48.09123,-27.589445 100.511,-55.454668 111.27684,-59.152381 9.91175,-3.404362 21.3597,-3.693192 28.74136,-0.72514 3.66042,1.471797 14.19876,11.267998 33.61619,31.248859 15.55635,16.007738 28.67678,29.839202 29.15651,30.736582 0.47972,0.89738 1.27187,11.49575 1.76031,23.55192 0.82454,20.35167 0.6869,22.22391 -1.92357,26.16295 -2.16021,3.25965 -2.81382,6.63973 -2.82098,14.58866 -0.006,5.69031 -0.6681,11.57698 -1.47328,13.08147 -1.86313,3.48129 -8.90549,3.62127 -16.39455,0.32585 -6.85764,-3.01756 -33.10756,-4.74398 -45.75451,-3.0092 -11.9205,1.63514 -16.51827,0.54755 -19.14305,-4.52822 -2.71921,-5.25835 -2.64678,-9.97974 0.29627,-19.31618 2.34833,-7.44973 2.33683,-7.64769 -0.61567,-10.60018 l -3.00868,-3.00868 -8.93026,3.23395 c -23.37817,8.46602 -58.97991,30.73593 -90.47386,56.59402 -22.14175,18.17946 -66.33905,62.21711 -81.8363,81.54068 -30.71829,38.30276 -53.15568,79.50055 -57.76931,106.07149 -5.73833,33.04835 -5.79418,41.36024 -0.35849,53.34841 5.14976,11.35753 8.30473,13.59837 19.23626,13.66264 4.7052,0.0277 10.10814,0.95559 12.05969,2.0712 1.94455,1.1116 6.25444,2.04365 9.57754,2.0712 5.14047,0.0426 6.97883,-0.81341 12.32046,-5.73715 5.43039,-5.00557 7.4796,-5.93844 15.17119,-6.90644 11.04612,-1.3902 28.91966,-7.16887 37.65285,-12.17351 3.62739,-2.07871 12.00461,-7.43514 18.61606,-11.90319 33.10139,-22.37006 58.02998,-36.05013 69.70999,-38.25473 4.05055,-0.76456 10.22843,-3.25343 13.72861,-5.53084 3.50018,-2.27742 15.15542,-9.66965 25.90053,-16.4272 10.74512,-6.75756 28.39581,-18.89005 39.22375,-26.96112 18.88794,-14.07892 28.79607,-20.19462 30.29278,-18.69791 0.67029,0.67028 -1.36558,8.07581 -3.44589,12.53457 -0.54436,1.16672 -3.85275,4.0305 -7.352,6.36396 -3.49923,2.33345 -11.71,9.17284 -18.24615,15.19863 -7.65325,7.05567 -15.54145,12.76323 -22.1579,16.03248 -10.70988,5.29186 -11.92669,6.83389 -7.79912,9.88372 2.26711,1.67517 1.91909,2.3709 -4.1457,8.28765 -3.64132,3.55242 -7.20197,6.45895 -7.91255,6.45895 -0.71057,0 -2.44382,-1.27279 -3.85165,-2.82842 -1.40784,-1.55564 -3.34369,-2.82843 -4.3019,-2.82843 -0.95822,0 -11.20101,8.00913 -22.76178,17.79807 -11.56077,9.78895 -24.29981,19.92445 -28.30898,22.52335 -5.61921,3.64259 -7.5129,5.80223 -8.26482,9.42553 -0.53647,2.58516 -2.54898,7.02314 -4.47224,9.86222 -4.11311,6.0717 -22.15463,21.57265 -32.45586,27.88552 -6.75783,4.14138 -13.27862,5.79338 -13.27862,3.36406 0,-0.58582 3.22812,-4.48533 7.17359,-8.66559 10.52445,-11.15074 7.2029,-12.4643 -6.7244,-2.65929 -9.89845,6.96864 -11.01377,8.2133 -10.65436,11.88999 0.74423,7.61343 -6.85939,12.97326 -24.82818,17.50151 -13.14476,3.31257 -49.86187,3.68814 -66.45789,0.67979 z"
       id="path20" /></g></svg>
